<svg xmlns="http://www.w3.org/2000/svg" viewBox="0 0 512 512" role="img" aria-label="Pi, chú cáo đom đóm">
  <rect width="512" height="512" rx="96" fill="#efeafc"/>
  <g transform="translate(96 96) scale(2.6)">
    <!-- đuôi -->
    <path d="M86 80 q26 2 28 -18 q-2 12 -14 12 q8 -6 4 -14 q-2 14 -18 12 q6 6 0 14 z" fill="#e8590c" stroke="#cf4d08" stroke-width="1" stroke-linejoin="round"/>
    <!-- thân -->
    <ellipse cx="56" cy="74" rx="30" ry="30" fill="#f57c1f"/>
    <!-- quầng sáng bụng -->
    <circle cx="56" cy="80" r="22" fill="#ffd44d" opacity=".5"/>
    <!-- bụng + ngôi sao -->
    <ellipse cx="56" cy="80" rx="19" ry="20" fill="#ffe9b0"/>
    <path d="M56 66 l4.2 9.2 10.1 1 -7.6 6.8 2.1 9.9 -8.8 -5.2 -8.8 5.2 2.1 -9.9 -7.6 -6.8 10.1 -1 z" fill="#ffc21f" stroke="#8a5a00" stroke-width="1.5" stroke-linejoin="round"/>
    <!-- đầu -->
    <circle cx="56" cy="40" r="26" fill="#f57c1f"/>
    <!-- tai -->
    <path d="M34 26 q-8 -16 4 -22 q6 8 14 14 q-10 0 -18 8 z" fill="#f57c1f" stroke="#e06d10" stroke-width="1" stroke-linejoin="round"/>
    <path d="M78 26 q8 -16 -4 -22 q-6 8 -14 14 q10 0 18 8 z" fill="#f57c1f" stroke="#e06d10" stroke-width="1" stroke-linejoin="round"/>
    <path d="M37 22 q-3 -8 2 -12 q3 5 7 8 q-6 0 -9 4 z" fill="#ffd9b0"/>
    <path d="M75 22 q3 -8 -2 -12 q-3 5 -7 8 q6 0 9 4 z" fill="#ffd9b0"/>
    <!-- má trắng -->
    <ellipse cx="56" cy="47" rx="18" ry="13.5" fill="#fff"/>
    <!-- chân mày -->
    <path d="M43 31 q5 -3 9 0" fill="none" stroke="#5a3a12" stroke-width="2" stroke-linecap="round"/>
    <path d="M60 31 q4 -3 9 0" fill="none" stroke="#5a3a12" stroke-width="2" stroke-linecap="round"/>
    <!-- mắt -->
    <ellipse cx="48" cy="39" rx="5.4" ry="6.4" fill="#221a3a"/>
    <ellipse cx="64" cy="39" rx="5.4" ry="6.4" fill="#221a3a"/>
    <circle cx="50" cy="36.5" r="2.1" fill="#fff"/>
    <circle cx="66" cy="36.5" r="2.1" fill="#fff"/>
    <!-- mũi + miệng -->
    <path d="M56 45 q-3.5 -2.5 -7 0 q3.5 3 7 0 q3.5 3 7 0 q-3.5 -2.5 -7 0 z" fill="#3a2410"/>
    <path d="M50 50 q6 6 12 0" fill="none" stroke="#221a3a" stroke-width="2.2" stroke-linecap="round"/>
    <!-- má hồng -->
    <circle cx="41" cy="47" r="3.6" fill="#ffb3a0" opacity=".85"/>
    <circle cx="71" cy="47" r="3.6" fill="#ffb3a0" opacity=".85"/>
  </g>
</svg>
